<svg width="791" height="557" viewBox="0 0 791 557" fill="none" xmlns="http://www.w3.org/2000/svg">
    <path fill-rule="evenodd" clip-rule="evenodd" d="M197.81 0C159.926 0 129.208 30.7018 129.208 68.5807C129.208 106.456 159.926 137.161 197.81 137.161C235.701 137.161 266.416 106.456 266.416 68.5807C266.416 30.7018 235.701 0 197.81 0ZM593.305 0C555.438 0 524.751 30.7018 524.751 68.5807C524.751 106.456 555.438 137.161 593.305 137.161C631.171 137.161 661.868 106.456 661.868 68.5807C661.868 30.7018 631.171 0 593.305 0ZM0 2.49602V69.5662L174.301 243.81V450.348H221.733V243.81L395.623 69.9751L569.398 243.81V450.348H616.802V243.81L790.985 69.5662V2.49602L593.101 200.453L395.623 2.90514L198.012 200.453L0 2.49602ZM0 90.5974V157.668L104.782 262.424V450.348H152.222V252.598V242.782L145.277 235.832L0 90.5974ZM790.985 90.5974L645.803 235.832L638.866 242.782V450.348H686.273V262.424L790.985 157.668V90.5974ZM395.623 93.4851L253.23 235.832L246.289 242.782V252.598V450.348H293.721V262.424L395.623 160.555L497.454 262.424V450.348H544.865V242.782L537.922 235.832L395.623 93.4851ZM294.591 475.304C286.349 475.304 278.94 476.356 272.359 478.451C265.779 480.556 260.227 483.45 255.705 487.148C251.182 490.838 247.713 495.158 245.304 500.124C242.892 505.08 241.689 510.459 241.689 516.249C241.689 521.901 242.892 527.17 245.304 532.054C247.713 536.938 251.182 541.197 255.705 544.815C260.227 548.435 265.779 551.283 272.359 553.344C278.94 555.411 286.349 556.435 294.591 556.435C302.928 556.435 310.366 555.411 316.896 553.344C323.43 551.283 328.955 548.435 333.476 544.815C337.996 541.197 341.464 536.938 343.878 532.054C346.289 527.17 347.499 521.901 347.499 516.249C347.499 510.459 346.289 505.08 343.878 500.124C341.464 495.158 337.996 490.838 333.476 487.148C328.955 483.45 323.43 480.556 316.896 478.451C310.366 476.356 302.928 475.304 294.591 475.304ZM0.85739 477.155V554.584H24.5724V477.155H0.85739ZM45.3074 477.155V554.584H67.5427V502.744H67.8436L112.621 554.584H136.291V477.155H114.052V529.103H113.685L68.804 477.155H45.3074ZM156.966 477.155V554.584H180.685V522.537H225.731V509.384H180.685V491.417H232.656V477.155H156.966ZM363.553 477.155V554.584H385.791V502.744H386.092L430.869 554.584H454.535V477.155H432.297V529.103H431.925L387.048 477.155H363.553ZM503.138 477.155L464.518 554.584H490.921L517.158 500.141H517.482L543.388 554.584H569.631L531.993 477.155H503.138ZM548.208 477.155L587.258 554.584H617.181L657.237 477.155H629.854L602.643 531.59H602.299L575.433 477.155H548.208ZM666.433 477.155V554.584H690.15V477.155H666.433ZM702.368 477.155V491.417H734.601V554.584H758.322V491.417H790.555V477.155H702.368ZM294.591 489.562C299.906 489.562 304.418 490.304 308.129 491.792C311.842 493.272 314.851 495.272 317.158 497.768C319.464 500.272 321.141 503.115 322.197 506.307C323.252 509.498 323.777 512.792 323.777 516.193C323.777 519.46 323.252 522.629 322.197 525.706C321.141 528.786 319.464 531.555 317.158 534.026C314.851 536.494 311.842 538.456 308.129 539.943C304.418 541.431 299.906 542.173 294.591 542.173C289.272 542.173 284.762 541.431 281.052 539.943C277.339 538.456 274.329 536.494 272.024 534.026C269.718 531.555 268.042 528.786 266.989 525.706C265.933 522.629 265.404 519.46 265.404 516.193C265.404 512.792 265.933 509.498 266.989 506.307C268.042 503.115 269.718 500.272 272.024 497.768C274.329 495.272 277.339 493.272 281.052 491.792C284.762 490.304 289.272 489.562 294.591 489.562Z" fill="#0064DF"/>
</svg>
